<?xml version="1.0" standalone="no"?>
<!DOCTYPE svg PUBLIC "-//W3C//DTD SVG 20010904//EN"
 "http://www.w3.org/TR/2001/REC-SVG-20010904/DTD/svg10.dtd">
<svg version="1.0" xmlns="http://www.w3.org/2000/svg"
 width="4096.000000pt" height="4096.000000pt" viewBox="0 0 4096.000000 4096.000000"
 preserveAspectRatio="xMidYMid meet">
<metadata>
Created by potrace 1.11, written by Peter Selinger 2001-2013
</metadata>
<g transform="translate(0.000000,4096.000000) scale(0.100000,-0.100000)"
fill="#000000" stroke="none">
<path d="M23650 24883 c-636 -33 -1133 -125 -1654 -303 -808 -276 -1518 -722
-2180 -1370 -972 -952 -1564 -2040 -1820 -3349 -35 -177 -79 -464 -92 -598
l-7 -73 1544 0 1544 0 39 153 c198 784 558 1378 1086 1792 260 204 593 395
854 490 357 131 765 190 1138 166 879 -56 1575 -348 2113 -886 509 -509 802
-1158 875 -1945 12 -123 14 -476 4 -575 -72 -732 -304 -1279 -748 -1769 -463
-510 -1068 -819 -1841 -940 -270 -42 -392 -48 -1102 -53 l-693 -5 0 -1368 0
-1369 833 -4 c885 -4 901 -5 1197 -58 679 -120 1272 -431 1731 -906 324 -335
575 -781 715 -1267 161 -560 204 -1177 123 -1766 -97 -703 -346 -1268 -762
-1732 -98 -109 -332 -328 -460 -430 -607 -483 -1354 -710 -2205 -667 -504 25
-890 117 -1267 304 -316 156 -545 333 -847 653 -328 348 -634 835 -838 1333
l-59 144 -1545 3 c-1442 2 -1546 1 -1546 -15 0 -28 59 -307 105 -500 372
-1541 1071 -2743 2093 -3599 800 -670 1682 -1101 2664 -1303 700 -144 1516
-158 2340 -41 1268 182 2357 664 3268 1446 1014 872 1630 1854 1959 3124 203
783 285 1817 205 2590 -64 623 -215 1208 -455 1773 -316 740 -825 1385 -1544
1959 -119 95 -373 280 -460 334 -25 16 -45 31 -45 34 0 3 24 21 53 40 81 55
393 291 482 365 513 428 890 871 1169 1374 106 191 160 318 247 581 229 694
329 1324 330 2070 0 1391 -426 2678 -1248 3765 -497 657 -1011 1124 -1683
1530 -179 107 -573 302 -779 385 -460 184 -1005 328 -1532 405 -412 59 -994
95 -1299 78z"/>
<path d="M36290 24436 c-443 -149 -1110 -375 -1482 -500 l-678 -229 0 -2163 0
-2164 1490 0 1490 0 0 2665 c0 1466 -3 2665 -7 2664 -5 0 -370 -123 -813 -273z"/>
</g>
</svg>
