<?xml version="1.0" standalone="no"?>
<!DOCTYPE svg PUBLIC "-//W3C//DTD SVG 20010904//EN"
 "http://www.w3.org/TR/2001/REC-SVG-20010904/DTD/svg10.dtd">
<svg version="1.0" xmlns="http://www.w3.org/2000/svg"
 width="4096.000000pt" height="4096.000000pt" viewBox="0 0 4096.000000 4096.000000"
 preserveAspectRatio="xMidYMid meet">
<metadata>
Created by potrace 1.11, written by Peter Selinger 2001-2013
</metadata>
<g transform="translate(0.000000,4096.000000) scale(0.100000,-0.100000)"
fill="#000000" stroke="none">
<path d="M23545 24880 c-1058 -69 -1959 -362 -2789 -907 -385 -253 -701 -517
-1066 -889 -997 -1018 -1582 -2235 -1770 -3681 -11 -85 -20 -168 -20 -184 l0
-29 1543 0 1543 0 33 133 c134 535 341 979 631 1357 168 218 494 504 770 675
674 418 1392 534 2241 364 935 -187 1688 -749 2098 -1567 173 -346 269 -674
323 -1112 17 -139 18 -658 1 -760 -7 -41 -22 -131 -33 -198 -98 -609 -366
-1130 -803 -1564 -447 -443 -960 -700 -1642 -822 -315 -57 -355 -59 -1155 -65
l-745 -6 -3 -1372 -2 -1371 827 -5 c692 -4 849 -7 953 -21 463 -60 808 -159
1145 -328 661 -330 1141 -836 1425 -1503 222 -519 334 -1228 290 -1830 -63
-860 -324 -1529 -801 -2052 -39 -43 -132 -136 -207 -207 -545 -513 -1076 -764
-1832 -868 -129 -18 -717 -18 -860 0 -622 77 -1090 261 -1500 588 -129 104
-433 413 -552 562 -259 325 -475 693 -648 1107 l-67 160 -1551 3 -1550 2 15
-77 c8 -43 35 -170 60 -283 328 -1478 977 -2697 1887 -3542 935 -868 2053
-1411 3246 -1577 336 -47 541 -61 890 -61 1416 0 2691 356 3745 1047 587 385
1192 949 1598 1490 542 720 899 1549 1091 2528 32 166 68 399 80 520 51 504
59 654 60 1025 0 415 -19 647 -90 1069 -75 453 -207 896 -401 1351 -366 858
-1036 1631 -1946 2243 l-99 66 48 33 c123 85 429 319 543 415 155 132 441 412
565 553 259 294 462 593 621 910 140 280 296 782 390 1254 234 1181 121 2478
-311 3574 -455 1151 -1286 2193 -2264 2837 -801 527 -1717 848 -2770 969 -366
43 -915 64 -1185 46z"/>
<path d="M35860 24294 c-674 -228 -1339 -453 -1477 -500 l-253 -86 0 -2164 0
-2164 1490 0 1490 0 0 2665 c0 2126 -3 2665 -12 2664 -7 0 -564 -187 -1238
-415z"/>
</g>
</svg>
